<svg width="48" height="48" viewBox="0 0 48 48" fill="none" xmlns="http://www.w3.org/2000/svg">
<circle cx="24" cy="24" r="24" fill="#D8E0FA"/>
<path d="M29.6786 17.3158L16.5632 23.1061C15.827 23.4436 16.0745 24.5594 16.8845 24.5594H23.1564C23.231 24.5594 23.3025 24.5891 23.3553 24.6418C23.408 24.6946 23.4377 24.7661 23.4377 24.8407V31.1112C23.4377 31.9212 24.5627 32.1658 24.8988 31.4318L30.6799 18.3171C30.7446 18.177 30.7647 18.0204 30.7377 17.8684C30.7106 17.7164 30.6375 17.5765 30.5284 17.4673C30.4192 17.3582 30.2793 17.2851 30.1273 17.258C29.9753 17.231 29.8187 17.2511 29.6786 17.3158Z" fill="#4E77FB"/>
<path d="M37.5 23.9983C37.5 16.5452 31.4531 10.4983 24 10.4983C16.5469 10.4983 10.5 16.5452 10.5 23.9983C10.5 31.4514 16.5469 37.4983 24 37.4983C31.4531 37.4983 37.5 31.4514 37.5 23.9983Z" stroke="#4E77FB" stroke-width="2" stroke-miterlimit="10"/>
</svg>
