<svg width="48" height="48" viewBox="0 0 48 48" fill="none" xmlns="http://www.w3.org/2000/svg">
<circle cx="24" cy="24" r="24" fill="#D8E0FA"/>
<path d="M24.2038 9.37416C15.9786 9.26307 9.2638 15.9779 9.37489 24.2031C9.48458 32.0914 15.9076 38.5145 23.796 38.6242C32.0225 38.7367 38.736 32.0218 38.6235 23.7967C38.5152 15.9069 32.0922 9.48385 24.2038 9.37416ZM33.0927 32.3839C33.0647 32.4142 33.0304 32.438 32.9921 32.4535C32.9539 32.469 32.9128 32.476 32.8716 32.4738C32.8304 32.4717 32.7901 32.4605 32.7538 32.4411C32.7174 32.4217 32.6857 32.3945 32.661 32.3614C32.0321 31.5386 31.2619 30.8341 30.3864 30.2809C28.5962 29.132 26.3279 28.4992 23.9999 28.4992C21.6718 28.4992 19.4036 29.132 17.6134 30.2809C16.7379 30.8339 15.9677 31.5381 15.3388 32.3607C15.3141 32.3938 15.2824 32.421 15.246 32.4404C15.2096 32.4598 15.1694 32.471 15.1282 32.4731C15.087 32.4753 15.0458 32.4683 15.0076 32.4528C14.9694 32.4373 14.9351 32.4135 14.9071 32.3832C12.8439 30.156 11.6752 27.2457 11.6249 24.2101C11.5103 17.368 17.1247 11.641 23.9697 11.6242C30.8146 11.6073 36.3749 17.1655 36.3749 23.9992C36.3772 27.108 35.2049 30.1029 33.0927 32.3839Z" fill="#4E77FB"/>
<path d="M23.9999 16.121C22.6134 16.121 21.3597 16.6406 20.4688 17.5849C19.578 18.5292 19.1329 19.8349 19.2335 21.2362C19.4374 23.996 21.5756 26.246 23.9999 26.246C26.4243 26.246 28.5583 23.996 28.7664 21.2369C28.8705 19.8489 28.4289 18.5552 27.5233 17.5933C26.6289 16.6441 25.3774 16.121 23.9999 16.121Z" fill="#4E77FB"/>
</svg>
