<svg width="48" height="48" viewBox="0 0 48 48" fill="none" xmlns="http://www.w3.org/2000/svg">
<circle cx="24" cy="24" r="24" fill="#D8E0FA"/>
<path d="M15 27.3704C16.864 27.3704 18.375 25.8593 18.375 23.9954C18.375 22.1314 16.864 20.6204 15 20.6204C13.136 20.6204 11.625 22.1314 11.625 23.9954C11.625 25.8593 13.136 27.3704 15 27.3704Z" stroke="#4E77FB" stroke-width="2" stroke-linecap="round" stroke-linejoin="round"/>
<path d="M33 17.2483C34.864 17.2483 36.375 15.7373 36.375 13.8733C36.375 12.0093 34.864 10.4983 33 10.4983C31.136 10.4983 29.625 12.0093 29.625 13.8733C29.625 15.7373 31.136 17.2483 33 17.2483Z" stroke="#4E77FB" stroke-width="2" stroke-linecap="round" stroke-linejoin="round"/>
<path d="M33 37.504C34.864 37.504 36.375 35.993 36.375 34.129C36.375 32.2651 34.864 30.754 33 30.754C31.136 30.754 29.625 32.2651 29.625 34.129C29.625 35.993 31.136 37.504 33 37.504Z" stroke="#4E77FB" stroke-width="2" stroke-linecap="round" stroke-linejoin="round"/>
<path d="M17.9409 25.6494L30.0586 32.4655" stroke="#4E77FB" stroke-width="2" stroke-linecap="round" stroke-linejoin="round"/>
<path d="M30.0586 15.5273L17.9409 22.3434" stroke="#4E77FB" stroke-width="2" stroke-linecap="round" stroke-linejoin="round"/>
</svg>
